HIERARCHY
ROOT Hips
{
	OFFSET 0.000000 0.000000 0.000000
	CHANNELS 6 Xposition Yposition Zposition Zrotation Yrotation Xrotation 
	JOINT LHipJoint
	{
		OFFSET 0.000000 0.000000 0.000000
		CHANNELS 3 Zrotation Yrotation Xrotation
		JOINT LeftUpLeg
		{
			OFFSET 1.363060 -1.794630 0.839290
			CHANNELS 3 Zrotation Yrotation Xrotation
			JOINT LeftLeg
			{
				OFFSET 2.448110 -6.726130 0.000000
				CHANNELS 3 Zrotation Yrotation Xrotation
				JOINT LeftFoot
				{
					OFFSET 2.562200 -7.039590 0.000000
					CHANNELS 3 Zrotation Yrotation Xrotation
					JOINT LeftToeBase
					{
						OFFSET 0.157640 -0.433110 2.322550
						CHANNELS 3 Zrotation Yrotation Xrotation
						End Site
						{
							OFFSET 0.000000 0.000000 0.000000
						}
					}
				}
			}
		}
	}
	JOINT RHipJoint
	{
		OFFSET 0.000000 0.000000 0.000000
		CHANNELS 3 Zrotation Yrotation Xrotation
		JOINT RightUpLeg
		{
			OFFSET -1.305520 -1.794630 0.839290
			CHANNELS 3 Zrotation Yrotation Xrotation
			JOINT RightLeg
			{
				OFFSET -2.542530 -6.985550 0.000000
				CHANNELS 3 Zrotation Yrotation Xrotation
				JOINT RightFoot
				{
					OFFSET -2.568260 -7.056230 0.000000
					CHANNELS 3 Zrotation Yrotation Xrotation
					JOINT RightToeBase
					{
						OFFSET -0.164730 -0.452590 2.363150
						CHANNELS 3 Zrotation Yrotation Xrotation
						End Site
						{
							OFFSET 0.000000 0.000000 0.000000
						}
					}
				}
			}
		}
	}
	JOINT LowerBack
	{
		OFFSET 0.000000 0.000000 0.000000
		CHANNELS 3 Zrotation Yrotation Xrotation
		JOINT Spine
		{
			OFFSET 0.028270 2.035590 -0.193380
			CHANNELS 3 Zrotation Yrotation Xrotation
			JOINT Spine1
			{
				OFFSET 0.056720 2.048850 -0.042750
				CHANNELS 3 Zrotation Yrotation Xrotation
				JOINT Neck
				{
					OFFSET 0.000000 0.000000 0.000000
					CHANNELS 3 Zrotation Yrotation Xrotation
					JOINT Neck1
					{
						OFFSET -0.054170 1.746240 0.172020
						CHANNELS 3 Zrotation Yrotation Xrotation
						JOINT Head
						{
							OFFSET 0.104070 1.761360 -0.123970
							CHANNELS 3 Zrotation Yrotation Xrotation
							End Site
							{
								OFFSET 0.000000 0.000000 0.000000
							}
						}
					}
				}
				JOINT LeftShoulder
				{
					OFFSET 0.000000 0.000000 0.000000
					CHANNELS 3 Zrotation Yrotation Xrotation
					JOINT LeftArm
					{
						OFFSET 3.362410 1.200890 -0.311210
						CHANNELS 3 Zrotation Yrotation Xrotation
						JOINT LeftForeArm
						{
							OFFSET 4.983000 -0.000000 -0.000000
							CHANNELS 3 Zrotation Yrotation Xrotation
							JOINT LeftHand
							{
								OFFSET 3.483560 -0.000000 -0.000000
								CHANNELS 3 Zrotation Yrotation Xrotation
								JOINT LeftFingerBase
								{
									OFFSET 0.000000 0.000000 0.000000
									CHANNELS 3 Zrotation Yrotation Xrotation
									JOINT LeftHandIndex1
									{
										OFFSET 0.715260 -0.000000 -0.000000
										CHANNELS 3 Zrotation Yrotation Xrotation
										End Site
										{
											OFFSET 0.000000 0.000000 0.000000
										}
									}
								}
								JOINT LThumb
								{
									OFFSET 0.000000 0.000000 0.000000
									CHANNELS 3 Zrotation Yrotation Xrotation
									End Site
									{
										OFFSET 0.000000 0.000000 0.000000
									}
								}
							}
						}
					}
				}
				JOINT RightShoulder
				{
					OFFSET 0.000000 0.000000 0.000000
					CHANNELS 3 Zrotation Yrotation Xrotation
					JOINT RightArm
					{
						OFFSET -3.136600 1.374050 -0.404650
						CHANNELS 3 Zrotation Yrotation Xrotation
						JOINT RightForeArm
						{
							OFFSET -5.241900 -0.000000 -0.000000
							CHANNELS 3 Zrotation Yrotation Xrotation
							JOINT RightHand
							{
								OFFSET -3.444170 -0.000000 -0.000000
								CHANNELS 3 Zrotation Yrotation Xrotation
								JOINT RightFingerBase
								{
									OFFSET 0.000000 0.000000 0.000000
									CHANNELS 3 Zrotation Yrotation Xrotation
									JOINT RightHandIndex1
									{
										OFFSET -0.622530 -0.000000 -0.000000
										CHANNELS 3 Zrotation Yrotation Xrotation
										End Site
										{
											OFFSET 0.000000 0.000000 0.000000
										}
									}
								}
								JOINT RThumb
								{
									OFFSET 0.000000 0.000000 0.000000
									CHANNELS 3 Zrotation Yrotation Xrotation
									End Site
									{
										OFFSET 0.000000 0.000000 0.000000
									}
								}
							}
						}
					}
				}
			}
		}
	}
}
MOTION
Frames: 10
Frame Time: 0.008333
11.082413 17.700124 -4.481168 177.952555 -3.188754 -176.384845 2.154979 0.020415 -1.173419 -24.357486 3.946781 -15.981109 2.173675 10.401360 29.828721 -0.605976 10.183707 -17.523715 0.830300 -5.813400 -16.244000 -7.226331 -0.899050 -2.892575 28.856227 13.949106 -2.334230 -2.057235 -5.993540 16.898987 -1.621508 -6.375447 -29.221599 -1.242900 7.068900 -19.919600 1.324835 0.994807 0.694904 1.084238 0.516354 -4.679401 3.417213 0.387601 3.921357 -6.654901 -2.557371 -15.172436 1.354572 -5.405610 26.132842 0.206600 -4.072400 12.530000 4.636937 -10.049662 2.059746 -70.678703 -1.131942 15.371999 20.416388 -23.788007 -4.938430 -0.782124 0.609234 -13.322497 30.162763 50.226708 24.192300 -7.125000 0.000000 0.000000 -34.715600 81.746200 -29.731500 -5.241352 10.540038 4.281907 70.563624 6.912782 9.312476 -20.227522 22.740739 -4.105147 -2.012803 -0.534483 10.027819 -23.623732 23.496964 -9.508900 7.125000 0.000000 0.000000 4.726100 -3.578500 4.437300 
11.088491 17.717584 -4.543494 178.020938 -2.825763 -176.408359 2.158953 0.004186 -1.174953 -23.869756 3.340360 -16.668944 2.100216 10.308211 29.474904 -0.669553 10.374700 -17.197513 0.783800 -5.651900 -15.777600 -7.232455 -0.856045 -2.956209 29.131239 13.883834 -1.584623 -1.975918 -5.675710 16.025018 -1.490144 -6.773946 -28.600411 -1.164700 6.850900 -19.274400 1.189915 0.968308 1.076618 1.065663 0.524924 -4.658711 3.472622 0.370611 4.008325 -6.513157 -2.459184 -15.526865 1.448361 -5.247918 26.060076 0.221400 -3.954900 12.587700 4.724179 -9.962587 2.149907 -67.912758 -0.567948 14.015097 20.371268 -23.594857 -4.910029 -0.803734 0.644594 -13.456863 28.841163 51.590463 23.495900 -7.125000 0.000000 0.000000 -43.801600 81.923800 -37.909400 -5.248366 10.453575 4.389338 68.474770 7.214129 8.593906 -20.078432 22.393491 -4.049922 -2.036544 -0.480164 10.317873 -23.725253 23.963359 -9.697900 7.125000 0.000000 0.000000 4.729900 -3.108600 4.482000 
11.088381 17.743332 -4.598858 177.966771 -2.386580 -176.419776 2.171441 0.001457 -1.165283 -23.537128 2.863386 -17.317634 2.068936 10.269724 29.295871 -0.854666 10.847169 -15.893836 0.822700 -5.787100 -16.167900 -7.221806 -0.824514 -3.059605 29.173473 13.355749 -0.830921 -1.869854 -5.215845 14.754654 -1.263752 -7.209986 -27.290819 -1.114900 6.707800 -18.852500 0.944418 0.987245 1.496253 1.010644 0.606140 -4.642660 3.448249 0.395913 4.042592 -6.308341 -2.400209 -15.679737 1.557776 -5.192086 25.915585 0.230200 -3.873700 12.538400 4.812158 -9.892033 2.259176 -64.907418 0.447683 12.651698 20.489984 -23.546172 -4.910896 -0.849634 0.699204 -13.666078 26.570690 52.020010 21.711300 -7.125000 0.000000 0.000000 -47.815000 81.109300 -40.850700 -5.268270 10.391908 4.537663 66.242824 7.033523 7.667685 -20.053838 22.144364 -4.016175 -2.048706 -0.469646 10.482031 -23.901565 23.981022 -9.785100 7.125000 0.000000 0.000000 4.632300 -3.055600 4.393400 
11.085618 17.779689 -4.650907 177.975427 -1.830630 -176.360718 2.191611 0.001759 -1.163463 -23.125313 2.417305 -17.783831 2.050061 10.226085 29.108194 -1.087204 11.239515 -13.360166 0.816400 -5.765600 -16.105700 -7.218886 -0.791630 -3.149557 29.261005 12.983556 -0.093726 -1.760555 -4.722688 13.382751 -0.992820 -7.862374 -25.784291 -1.139200 6.778200 -19.060000 0.761273 1.077597 1.859772 0.942260 0.773803 -4.617321 3.374927 0.463697 4.133222 -6.097498 -2.397300 -15.771749 1.670330 -5.209954 25.685520 0.242200 -3.818900 12.415800 4.904560 -9.830168 2.374984 -61.685494 1.824578 11.491989 20.848060 -23.760427 -4.991702 -0.885662 0.767335 -14.742614 25.552552 52.279514 20.908600 -7.125000 0.000000 0.000000 -49.518600 80.745800 -42.068300 -5.296758 10.331991 4.731073 63.764781 6.424534 6.571232 -19.994598 21.827766 -3.972758 -2.068085 -0.463290 10.496966 -24.152295 23.998453 -9.906000 7.125000 0.000000 0.000000 4.495100 -2.985900 4.268200 
11.079319 17.818919 -4.701630 178.156897 -1.203964 -176.262663 2.215851 0.002395 -1.171092 -22.520331 1.996176 -18.111762 2.064864 10.212689 29.025700 -1.288437 11.412905 -9.489555 0.771600 -5.608800 -15.653400 -7.230759 -0.759348 -3.220079 29.549905 12.808500 0.671345 -1.650908 -4.209551 11.950949 -0.707972 -8.554173 -24.127016 -1.083400 6.615400 -18.580900 0.755316 1.206079 2.203697 0.883831 0.978986 -4.581960 3.277142 0.548716 4.282968 -5.888827 -2.419167 -15.824592 1.745196 -5.244707 25.392452 0.243200 -3.773700 12.235200 5.007291 -9.779172 2.486798 -58.285717 3.514315 10.682471 21.382106 -24.153992 -5.121577 -0.919201 0.855291 -16.454879 25.434905 52.125883 20.723200 -7.125000 0.000000 0.000000 -48.150000 80.561900 -40.692200 -5.321474 10.276941 4.981752 60.968674 5.332355 5.654221 -19.997973 21.527294 -3.931219 -2.086028 -0.476657 9.963938 -24.195940 23.980615 -9.911000 7.125000 0.000000 0.000000 4.481100 -2.996300 4.254000 
11.065174 17.860248 -4.752353 178.140504 -0.466965 -176.159020 2.241598 0.013646 -1.171517 -22.182224 1.677252 -18.349672 2.089111 10.204933 28.957881 -1.361186 11.346669 -4.802860 0.622300 -5.048400 -14.046600 -7.225767 -0.732725 -3.319200 29.557416 12.325397 1.328017 -1.554948 -3.677382 10.474002 -0.400788 -8.996353 -21.807373 -0.852600 5.889000 -16.462700 0.537881 1.345322 2.548821 0.804098 1.210547 -4.530573 3.203959 0.643755 4.487577 -5.681642 -2.427871 -15.748296 1.789839 -5.238729 25.000161 0.239000 -3.709200 11.944000 5.108684 -9.744263 2.596695 -54.741585 5.570411 10.028382 21.866095 -24.463858 -5.220447 -0.961654 0.965245 -18.147402 25.397917 51.659700 20.510600 -7.125000 0.000000 0.000000 -45.050900 80.232100 -37.685800 -5.345637 10.239537 5.279247 58.067181 3.770928 4.555924 -20.129282 21.318289 -3.898546 -2.089460 -0.523943 9.614970 -24.273855 23.445547 -9.767100 7.125000 0.000000 0.000000 4.377400 -3.506500 4.113700 
11.044178 17.904120 -4.798545 177.990665 0.446699 -175.980268 2.264232 0.032290 -1.168213 -22.111868 1.702084 -18.284655 2.096137 10.192171 28.909780 -1.374388 11.447834 -3.051096 0.933000 -6.153000 -17.229000 -7.213260 -0.711486 -3.425783 29.383125 11.747577 1.736814 -1.480921 -3.187301 9.102282 -0.106509 -9.259794 -19.021654 -0.522200 4.631300 -12.859900 0.198299 1.519157 2.803214 0.697560 1.517658 -4.437011 3.110274 0.778224 4.880223 -5.546990 -2.443005 -15.683138 1.893247 -5.207927 24.540873 0.288100 -3.629000 11.611100 5.195891 -9.727377 2.685723 -51.134238 8.044608 9.524588 22.325335 -24.763500 -5.330634 -0.989245 1.092616 -19.806271 25.987244 52.166798 21.060000 -7.125000 0.000000 0.000000 -46.401300 80.649200 -39.213600 -5.377623 10.206377 5.602751 55.195803 1.869121 2.781922 -20.194945 21.046794 -3.866825 -2.113291 -0.526932 10.024167 -24.720272 23.147233 -9.874500 7.125000 0.000000 0.000000 4.085100 -3.703800 3.822600 
11.017988 17.955284 -4.832249 177.747721 1.302887 -175.705576 2.295551 0.049702 -1.180764 -22.233910 1.809126 -18.407647 2.087365 10.164113 28.787845 -1.350155 11.454818 -1.162176 1.074300 -6.588700 -18.502500 -7.202756 -0.691934 -3.515859 29.090155 11.256727 1.823267 -1.434650 -2.811709 8.036444 0.138400 -9.643284 -16.465195 -0.282800 3.420200 -9.450900 -0.230168 1.683061 3.041104 0.581527 1.781114 -4.308269 3.003257 0.868871 5.393635 -5.475506 -2.443290 -15.534813 2.091520 -5.134132 23.969729 0.408900 -3.520600 11.192400 5.259196 -9.744499 2.739658 -47.646171 10.812726 8.855692 22.715241 -25.019507 -5.415113 -0.992374 1.255874 -21.188331 27.594772 52.620801 22.420500 -7.125000 0.000000 0.000000 -46.712200 81.456500 -40.148100 -5.405312 10.198866 5.950534 52.408794 -0.406538 0.596094 -20.310457 20.831524 -3.850228 -2.145222 -0.505407 10.586659 -25.109087 23.076040 -10.027200 7.125000 0.000000 0.000000 3.858000 -3.689800 3.610100 
10.992571 18.010980 -4.847941 177.538503 1.899992 -175.381512 2.328715 0.069956 -1.198236 -22.311103 1.781031 -18.610182 2.069070 10.135386 28.653039 -1.255299 11.079966 0.480811 1.194200 -6.934100 -19.520300 -7.193804 -0.686643 -3.594079 28.831322 10.645655 1.589361 -1.405220 -2.551104 7.279473 0.333520 -10.163537 -14.337451 -0.132600 2.347200 -6.466200 -0.650009 1.757567 3.415101 0.480695 1.941470 -4.160124 2.907583 0.915054 5.866897 -5.430576 -2.415351 -15.106977 2.391435 -5.014286 23.197345 0.597700 -3.378900 10.598400 5.292179 -9.832208 2.743847 -44.383540 14.005695 8.059792 23.061333 -25.265607 -5.474972 -0.980984 1.448162 -22.233102 29.628246 52.406731 23.938900 -7.125000 0.000000 0.000000 -42.578900 82.117800 -36.960900 -5.409116 10.266094 6.326390 49.795059 -3.268533 -1.459365 -20.592392 20.774067 -3.863573 -2.166290 -0.545200 10.392024 -25.358831 22.650492 -9.992800 7.125000 0.000000 0.000000 3.671400 -4.047000 3.410200 
10.968923 18.065128 -4.840979 177.451753 2.335032 -175.037618 2.363443 0.091467 -1.227993 -22.210775 1.547651 -18.879538 2.045151 10.109001 28.503055 -1.151519 10.757173 2.200862 1.343000 -7.337100 -20.717900 -7.195429 -0.693196 -3.657586 28.696805 9.993794 1.089219 -1.382487 -2.361811 6.706048 0.491235 -10.805778 -12.685161 -0.019300 0.897700 -2.467500 -0.959524 1.806535 4.024637 0.399071 2.085040 -3.980234 2.806530 0.962411 6.288765 -5.303968 -2.415974 -14.540017 2.628222 -4.910773 22.304588 0.736900 -3.233400 9.917300 5.298959 -9.997454 2.683740 -41.359977 17.507796 7.188444 23.257804 -25.412857 -5.497727 -0.979000 1.632357 -22.580634 30.571250 52.731684 24.729400 -7.125000 0.000000 0.000000 -42.682200 82.590500 -37.408000 -5.370498 10.439055 6.702759 47.468548 -6.816244 -3.448955 -20.943566 20.792812 -3.928283 -2.199916 -0.653137 9.398963 -26.137002 21.980763 -10.121900 7.125000 0.000000 0.000000 3.145300 -4.504600 2.893000 
